<svg id="Livello_1" data-name="Livello 1" xmlns="http://www.w3.org/2000/svg" width="142.2mm" height="50.85mm" viewBox="0 0 403.09 144.14"><defs><style>.cls-1{fill:#1d1d1b;}</style></defs><path class="cls-1" d="M26.49,21.14H59.6c18.18,0,29.31,3.52,36.63,10.85C101.45,37.2,104,44.1,104,51.85,104,76.51,85.38,93,54.1,93H40.16L33,119.77H0ZM52.41,69.46c12.54,0,18.32-5.63,18.32-13.1a8.24,8.24,0,0,0-2.4-5.78c-2.25-2.25-6.19-3.1-9.86-3.1h-6.2l-5.77,22Z"/><path class="cls-1" d="M120.68,21.14h33L134.77,91.59h44.95l-7.61,28.18H94.19Z"/><path class="cls-1" d="M241.66,20.43h32.69l14.93,99.34H254.2l-1.69-13.25H218l-8.6,13.25H173.46Zm9,62.7L248,59.18,232.64,83.13Z"/><path class="cls-1" d="M315,82.15l-19.31-61h34.66l8,33,25.64-33h39L347,86.23l-9,33.54H305Z"/></svg>